PathFileType	4	(X/Y/Z)	C:/Users/opensim2020/Desktop/walking_exp_matlab/subject02_walking10_straight_04.trc	
DataRate	CameraRate	NumFrames	NumMarkers	Units	OrigDataRate	OrigDataStartFrame	OrigNumFrames	
100.00	100.00	8	43	mm	100.00	3214	260	
Frame#	Time	LFHD			RFHD			LBHD			RBHD			C7			T10			CLAV			STRN			RBAK			LSHO			LUPA			LELB			LFRM			LWRA			LWRB			LFIN			RSHO			RUPA			RELB			RFRM			RWRA			RWRB			RFIN			LASI			RASI			LPSI			RPSI			LTHI			LKNE			LTIB			LANK			LHEE			LTOE			RTHI			RKNE			RTIB			RANK			RHEE			RTOE			*39			*40			*41			*42			
		X1	Y1	Z1	X2	Y2	Z2	X3	Y3	Z3	X4	Y4	Z4	X5	Y5	Z5	X6	Y6	Z6	X7	Y7	Z7	X8	Y8	Z8	X9	Y9	Z9	X10	Y10	Z10	X11	Y11	Z11	X12	Y12	Z12	X13	Y13	Z13	X14	Y14	Z14	X15	Y15	Z15	X16	Y16	Z16	X17	Y17	Z17	X18	Y18	Z18	X19	Y19	Z19	X20	Y20	Z20	X21	Y21	Z21	X22	Y22	Z22	X23	Y23	Z23	X24	Y24	Z24	X25	Y25	Z25	X26	Y26	Z26	X27	Y27	Z27	X28	Y28	Z28	X29	Y29	Z29	X30	Y30	Z30	X31	Y31	Z31	X32	Y32	Z32	X33	Y33	Z33	X34	Y34	Z34	X35	Y35	Z35	X36	Y36	Z36	X37	Y37	Z37	X38	Y38	Z38	X39	Y39	Z39	X40	Y40	Z40	X41	Y41	Z41	X42	Y42	Z42	X43	Y43	Z43	

163	1.620	-1102.22974	-570.51636	1731.04688	-1241.25488	-568.41571	1696.81018	-1084.63757	-438.37619	1661.69897	-1223.41113	-423.60724	1626.09656	-1142.20691	-383.21472	1506.94714	-1145.57617	-343.49283	1229.36060	-1126.39551	-525.02313	1445.06238	-1129.02893	-585.81329	1276.14490	-1200.91162	-334.37585	1327.15601	-959.54266	-453.12509	1492.34558	-872.07385	-457.84583	1294.22864	-854.80920	-469.59995	1153.61243	-835.64001	-504.88113	1026.55945	-851.82202	-591.81403	918.54144	-827.51111	-542.14490	908.90607	-816.20441	-577.14465	853.68933	-1326.36536	-465.17166	1467.24805	-1403.38538	-434.25394	1273.48315	-1417.55005	-444.06171	1128.89722	-1439.24622	-463.67105	1011.89612	-1424.72217	-502.06927	881.22632	-1456.11243	-454.98688	882.87726	-1459.69568	-485.92184	816.01074	-998.18164	-569.75122	967.61554	-1246.50183	-606.07062	973.96753	-1097.68884	-370.71851	1012.32715	-1214.45313	-379.62228	1014.85205	-933.24744	-450.65283	665.66211	-941.70166	-396.78860	481.43698	-949.69690	-247.64232	363.49738	-971.87537	-121.98848	178.36369	-1031.01636	-91.34808	179.14653	-956.89703	-193.06259	37.09454	-1322.35815	-597.02081	672.25946	-1275.63684	-629.94208	466.09085	-1285.23059	-601.44299	278.98749	-1247.93188	-587.92865	88.15557	-1195.35132	-550.37939	35.61295	-1251.62610	-742.40759	33.95514	-1197.05945	-469.12961	1788.79883	-3356.96484	2846.04175	1034.14819						 
164	1.630	-1104.10608	-579.02667	1732.16101	-1243.19080	-576.86511	1698.16931	-1086.53198	-446.95178	1662.82800	-1225.26782	-432.13126	1627.34851	-1144.88831	-391.69504	1508.35449	-1148.78503	-351.96625	1230.56226	-1128.52258	-533.42657	1446.30823	-1131.20288	-594.36176	1277.52356	-1203.97119	-343.02682	1328.59570	-961.85840	-461.24866	1493.39832	-875.17975	-465.70972	1295.01831	-859.32202	-474.79745	1154.11035	-839.77008	-506.59070	1026.35193	-855.33655	-590.98010	915.74060	-831.25684	-541.00897	907.90784	-820.10999	-574.04938	851.50018	-1328.47534	-473.89780	1469.08765	-1406.08496	-443.78992	1275.21716	-1420.63000	-453.93155	1130.89001	-1441.96924	-474.11545	1013.76587	-1427.40137	-512.85059	883.17041	-1458.86218	-465.84842	884.72192	-1462.43628	-496.93781	818.00073	-1000.26849	-577.41736	969.33655	-1248.68665	-614.89703	975.20398	-1101.34827	-378.71558	1013.77557	-1217.95667	-388.90378	1016.40479	-934.42224	-463.67081	665.46173	-941.16003	-413.73151	481.38333	-949.16785	-264.18448	365.55759	-972.26935	-134.82944	183.89230	-1031.45117	-104.86005	185.23425	-954.82166	-202.15541	41.09439	-1323.34473	-602.33954	672.04858	-1276.67651	-633.80957	465.88074	-1286.10803	-603.95490	278.92136	-1248.11072	-588.25000	88.14729	-1195.69556	-550.16052	35.88590	-1251.55017	-742.46045	33.89377	-1198.88110	-477.57550	1790.11438	-3356.92871	2846.11865	1034.10693						 
165	1.640	-1105.76147	-587.62732	1733.45740	-1244.96069	-585.24255	1699.60754	-1088.40833	-455.64304	1664.09253	-1227.12073	-440.62814	1628.64355	-1146.97241	-400.21622	1509.36035	-1152.08704	-360.30249	1231.87854	-1130.57751	-541.69250	1447.51880	-1133.28430	-602.70459	1278.68811	-1206.88855	-351.79242	1329.98193	-964.14142	-469.18079	1494.36121	-878.21320	-472.65488	1295.60669	-863.67462	-479.11832	1154.53125	-843.87970	-508.93549	1026.33179	-858.72906	-590.36896	913.52838	-834.87354	-539.40350	907.00500	-824.08246	-571.08917	849.12292	-1330.57373	-482.98007	1470.78369	-1409.38208	-453.22452	1277.13940	-1423.16077	-464.09512	1132.52551	-1444.66711	-484.73013	1015.50916	-1429.98511	-523.86212	885.13684	-1461.54663	-476.95847	886.51819	-1465.18372	-508.34338	819.93286	-1001.88892	-584.36530	971.06366	-1250.42261	-623.50397	976.15851	-1105.14172	-386.41818	1015.08655	-1221.55591	-398.01584	1017.96954	-935.36505	-475.72568	665.32507	-940.71906	-430.77173	481.66687	-948.55743	-280.87598	367.71985	-973.66254	-148.43436	188.81259	-1033.51514	-119.57195	190.01170	-951.42700	-214.44415	45.94086	-1324.71960	-607.61755	671.64069	-1277.69385	-637.30548	465.62393	-1286.83997	-606.44940	278.86575	-1248.26868	-588.60083	88.18422	-1195.70068	-550.23724	35.71648	-1251.53235	-742.58582	33.85789	-1200.74756	-485.91095	1791.47656	-3360.26196	2845.14990	1034.09546						 
166	1.650	-1107.31165	-595.95734	1734.66736	-1246.55347	-593.58636	1701.12634	-1090.02075	-463.92664	1664.96423	-1228.85974	-448.98093	1630.09155	-1149.12024	-408.70975	1510.57397	-1155.31982	-368.49451	1233.21021	-1132.41919	-549.95197	1448.72693	-1135.03467	-610.35840	1279.54968	-1209.76807	-360.47244	1331.29626	-966.20959	-476.72690	1495.20740	-881.33203	-479.02658	1295.98779	-867.60248	-484.02570	1155.03833	-847.59741	-510.46466	1026.34949	-862.06482	-589.48926	911.23322	-838.31018	-538.82910	906.34998	-827.97668	-567.83459	847.26917	-1332.63611	-492.31146	1472.30981	-1411.94189	-462.87308	1278.78662	-1425.90601	-474.19223	1134.18103	-1447.17798	-495.50101	1017.38330	-1432.48328	-535.07538	887.03387	-1463.94727	-488.44290	888.07208	-1467.96960	-520.09479	821.89056	-1002.89447	-591.07062	972.84778	-1251.85205	-631.90741	976.77234	-1109.02283	-393.99554	1016.20160	-1225.23389	-406.80710	1019.53088	-936.19940	-487.94550	665.91437	-940.44263	-447.79709	482.31860	-948.60126	-297.37408	370.23203	-975.64459	-163.15646	193.12395	-1036.12305	-135.29050	192.90605	-948.41400	-228.74045	50.84437	-1325.96582	-612.81366	671.59015	-1278.64746	-640.52795	465.36075	-1287.38660	-608.75061	278.70502	-1248.33240	-589.24054	87.97083	-1195.88940	-550.18921	36.07726	-1251.51013	-742.52423	33.79727	-1202.02417	-494.33853	1792.73340	-3360.36548	2845.29443	1034.09937						 
167	1.660	-1109.26807	-604.73682	1736.17139	-1248.00928	-601.89874	1702.70447	-1091.52307	-472.38229	1666.11731	-1230.49646	-457.39798	1631.53394	-1151.85779	-417.00714	1512.15112	-1158.56250	-376.55420	1234.64539	-1134.20386	-558.12653	1449.93127	-1136.56165	-618.26666	1280.59570	-1212.83252	-369.00806	1332.79749	-968.07788	-484.21478	1496.05042	-884.28033	-485.73511	1296.53467	-871.24042	-488.92834	1155.51428	-851.18140	-512.07153	1026.30762	-865.26349	-588.56989	909.12372	-841.56689	-537.36224	905.82251	-831.74652	-564.66254	845.51465	-1334.55151	-501.59607	1474.00842	-1414.48889	-472.62662	1280.44983	-1428.21606	-484.47305	1135.65527	-1449.97021	-506.28384	1019.05450	-1434.98718	-546.68896	889.04254	-1466.61890	-499.93228	889.83380	-1470.47534	-532.34625	823.74408	-1003.60352	-597.31964	974.53021	-1252.89087	-640.19012	977.12732	-1112.92297	-401.40860	1017.24304	-1228.83630	-415.32706	1021.16095	-937.10553	-500.20535	667.06610	-940.41602	-464.56848	483.48001	-949.60168	-313.78854	373.03223	-977.91760	-178.94499	196.37320	-1038.99976	-151.94580	194.31570	-944.94672	-245.15570	55.68481	-1327.36157	-618.34442	671.81989	-1279.46643	-643.43109	465.07520	-1287.86194	-610.64386	278.56473	-1248.40002	-589.07898	88.17913	-1195.48022	-550.18243	36.47672	-1251.48633	-742.60822	33.76091	-1203.08838	-502.58069	1794.01147	-3360.28247	2845.18018	1034.14966						 
168	1.670	-1110.16907	-612.28888	1737.28979	-1249.26367	-610.17682	1704.30603	-1093.02283	-480.59808	1667.16785	-1231.97021	-465.77078	1632.94836	-1154.30957	-425.25452	1513.88745	-1161.66626	-384.54984	1236.08862	-1135.78027	-566.21149	1451.14136	-1137.98523	-626.12543	1281.65417	-1215.95288	-377.40720	1334.45764	-969.85724	-491.47815	1496.85181	-886.89545	-492.13815	1296.98523	-874.77850	-493.77063	1156.21863	-854.45508	-513.51862	1026.51917	-868.39563	-587.68970	907.29974	-844.66168	-536.70007	905.60022	-835.65283	-561.61609	843.96765	-1336.21594	-510.86749	1475.53918	-1417.00488	-482.46545	1282.08411	-1431.29126	-494.66666	1137.46729	-1452.27380	-517.39948	1020.69977	-1437.42725	-558.64923	891.19067	-1468.92053	-511.91925	891.39984	-1473.31506	-544.70575	825.81830	-1004.06543	-603.26501	976.06616	-1253.87012	-648.23987	977.33655	-1116.81213	-408.69626	1018.24786	-1232.15027	-423.66089	1022.59540	-937.68170	-511.71661	668.55872	-940.64337	-481.24893	485.07562	-951.71808	-330.36441	375.54044	-980.21588	-195.73502	198.48956	-1041.52271	-169.46477	194.83630	-941.41003	-263.04416	60.01328	-1328.51929	-623.78363	672.36670	-1280.29053	-646.02136	464.80466	-1288.35559	-611.98364	278.42828	-1248.49622	-589.21985	88.17250	-1195.84241	-549.75806	36.34154	-1251.48877	-742.62946	33.76040	-1203.98950	-510.70963	1795.10828	-3360.33398	2845.28174	1034.11450						 
169	1.680	-1111.89929	-621.00702	1738.64258	-1250.49536	-618.47650	1705.79041	-1094.48206	-488.77603	1668.24121	-1233.39929	-473.93649	1634.07666	-1155.67297	-433.78384	1515.02991	-1164.74475	-392.34012	1237.59570	-1137.27087	-574.17230	1452.30347	-1139.29553	-633.80695	1282.62500	-1219.05176	-385.75360	1336.20361	-971.57928	-498.50861	1497.66528	-889.46338	-497.49628	1297.55042	-878.15283	-498.99258	1156.51233	-857.69196	-515.26593	1027.10461	-871.42200	-586.80414	905.71021	-847.59955	-535.51691	905.43408	-839.30200	-558.85059	842.80426	-1338.33862	-520.56885	1477.11157	-1419.48193	-492.49750	1283.73376	-1433.62769	-505.23474	1138.95203	-1454.93286	-528.63196	1022.41296	-1439.64307	-570.61987	893.25549	-1471.46021	-523.90723	893.18103	-1475.45691	-557.45105	828.06445	-1004.29724	-609.38898	977.58124	-1254.81702	-656.04553	977.54718	-1120.43481	-415.93704	1019.31860	-1235.31177	-431.58176	1024.27332	-938.33716	-523.82593	670.28101	-941.10706	-497.70050	486.86612	-953.96289	-347.35806	377.42120	-982.20996	-213.43071	199.58589	-1044.06580	-187.77136	194.07164	-938.01892	-282.32730	63.91461	-1329.41187	-629.40002	672.70319	-1281.12878	-648.26532	464.56183	-1288.84290	-612.80566	278.29062	-1248.58325	-589.34973	88.19984	-1195.68640	-549.89746	36.35294	-1251.54675	-742.57471	33.75174	-1205.40588	-518.88660	1796.96228	-3360.31934	2845.22900	1034.06738						 
170	1.690	-1112.26880	-628.58606	1740.02820	-1251.46558	-626.64844	1707.51514	-1095.73767	-496.81396	1669.66589	-1234.79468	-482.21103	1635.57104	-1158.21252	-441.96805	1516.79773	-1167.84058	-400.01669	1239.18103	-1138.66650	-582.14532	1453.44067	-1140.40430	-641.95190	1283.82410	-1221.73926	-394.16394	1337.81848	-973.22626	-505.36270	1498.43103	-892.08783	-502.04639	1297.99988	-880.85956	-502.99768	1157.23743	-860.77295	-517.73834	1027.82678	-874.24774	-585.88623	904.29645	-850.24927	-534.71741	905.57428	-842.63922	-556.66791	841.99200	-1340.08984	-530.08374	1478.75525	-1421.85474	-502.70465	1285.39038	-1436.52502	-515.71570	1140.78101	-1457.34045	-540.07117	1024.29773	-1441.76025	-582.76154	895.45209	-1473.75977	-536.24231	894.87811	-1477.78357	-570.57434	830.28912	-1004.11920	-615.87347	979.26385	-1255.85144	-663.62048	977.74829	-1123.83252	-422.95062	1020.56250	-1238.19519	-439.20770	1025.99451	-938.98798	-535.62933	672.00427	-941.52313	-513.82556	488.77911	-956.14044	-364.56317	378.65506	-984.21143	-231.95529	199.56697	-1046.29602	-206.60344	192.12621	-934.82642	-302.87958	67.15865	-1330.30603	-635.10547	672.79028	-1281.98950	-650.02606	464.21106	-1289.30762	-613.22986	278.22324	-1248.58081	-589.41779	88.26154	-1195.62976	-549.90540	36.46259	-1251.61096	-742.64795	33.76740	-1206.25928	-526.95538	1798.39978	-3360.42139	2845.22168	1033.99524						 
